<?xml version="1.0" encoding="UTF-8" standalone="no" ?>
<!DOCTYPE svg PUBLIC "-//W3C//DTD SVG 1.1//EN" "http://www.w3.org/Graphics/SVG/1.1/DTD/svg11.dtd">
<svg xmlns="http://www.w3.org/2000/svg" xmlns:xlink="http://www.w3.org/1999/xlink" version="1.1" width="1080" height="680" viewBox="0 0 1080 680" xml:space="preserve">
<desc>Created with Fabric.js 5.2.4</desc>
<defs>
</defs>
<g transform="matrix(1 0 0 1 540 340)" id="e353ffa7-85a4-4eb8-959a-772be088d6a1"  >
<rect style="stroke: none; stroke-width: 1; stroke-dasharray: none; stroke-linecap: butt; stroke-dashoffset: 0; stroke-linejoin: miter; stroke-miterlimit: 4; fill: rgb(255,255,255); fill-rule: nonzero; opacity: 1; visibility: hidden;" vector-effect="non-scaling-stroke"  x="-540" y="-340" rx="0" ry="0" width="1080" height="680" />
</g>
<g transform="matrix(Infinity NaN NaN Infinity 0 0)" id="2a322a17-ceb1-4e41-b83f-ac86a8a5b9da"  >
</g>
<g transform="matrix(1.42 0 0 1.42 540 340)"  >
<g style="" vector-effect="non-scaling-stroke"   >
		<g transform="matrix(0.13 0 0 -0.13 -2.66 -83.44)"  >
<path style="stroke: none; stroke-width: 1; stroke-dasharray: none; stroke-linecap: butt; stroke-dashoffset: 0; stroke-linejoin: miter; stroke-miterlimit: 4; fill: rgb(0,0,0); fill-rule: nonzero; opacity: 1;" vector-effect="non-scaling-stroke"  transform=" translate(-2493.78, -3161.82)" d="M 2164 3686 C 2143 3674 2071 3628 2005 3585 C 1757 3424 1501 3260 1495 3260 C 1492 3260 1490 3309 1490 3368 C 1490 3439 1486 3480 1478 3488 C 1470 3496 1419 3500 1314 3500 C 1189 3500 1159 3497 1146 3484 C 1132 3471 1130 3435 1130 3241 L 1130 3014 L 1097 2995 C 1000 2938 604 2676 597 2665 C 584 2641 601 2618 629 2622 C 643 2624 1001 2850 1424 3125 C 1847 3399 2198 3623 2204 3623 C 2211 3623 2277 3584 2351 3536 C 2425 3488 2647 3343 2845 3215 C 3043 3087 3330 2900 3482 2801 C 3771 2612 3810 2594 3810 2648 C 3809 2672 3788 2688 3607 2804 C 3398 2938 3346 2972 2950 3230 C 2821 3314 2693 3397 2667 3413 C 2640 3429 2622 3446 2627 3450 C 2631 3454 2689 3491 2756 3534 L 2877 3611 L 3031 3509 C 3325 3314 4036 2846 4194 2743 C 4357 2636 4395 2622 4395 2668 C 4395 2687 4350 2721 4135 2863 C 3893 3023 3293 3418 3003 3607 L 2877 3690 L 2841 3668 C 2821 3656 2754 3613 2692 3573 C 2630 3532 2573 3497 2565 3494 C 2557 3491 2484 3532 2398 3588 C 2193 3721 2211 3713 2164 3686 z M 1420 3318 L 1420 3205 L 1316 3138 C 1259 3100 1209 3070 1206 3070 C 1203 3070 1200 3151 1200 3250 L 1200 3430 L 1310 3430 L 1420 3430 L 1420 3318 z" stroke-linecap="round" />
</g>
		<g transform="matrix(0.13 0 0 -0.13 -247.16 55.4)"  >
<path style="stroke: none; stroke-width: 1; stroke-dasharray: none; stroke-linecap: butt; stroke-dashoffset: 0; stroke-linejoin: miter; stroke-miterlimit: 4; fill: rgb(0,0,0); fill-rule: nonzero; opacity: 1;" vector-effect="non-scaling-stroke"  transform=" translate(-660, -2120.5)" d="M 550 2121 L 550 1880 L 660 1880 L 770 1880 L 770 1905 C 770 1930 769 1930 690 1930 L 610 1930 L 608 2143 L 605 2355 L 578 2358 L 550 2361 L 550 2121 z" stroke-linecap="round" />
</g>
		<g transform="matrix(0.13 0 0 -0.13 -165.16 55.47)"  >
<path style="stroke: none; stroke-width: 1; stroke-dasharray: none; stroke-linecap: butt; stroke-dashoffset: 0; stroke-linejoin: miter; stroke-miterlimit: 4; fill: rgb(0,0,0); fill-rule: nonzero; opacity: 1;" vector-effect="non-scaling-stroke"  transform=" translate(-1275, -2120)" d="M 1150 2120 L 1150 1880 L 1275 1880 L 1400 1880 L 1400 1905 C 1400 1930 1400 1930 1305 1930 L 1210 1930 L 1210 2015 L 1210 2100 L 1295 2100 C 1379 2100 1380 2100 1380 2125 C 1380 2150 1379 2150 1295 2150 L 1210 2150 L 1210 2230 L 1210 2310 L 1305 2310 C 1400 2310 1400 2310 1400 2335 L 1400 2360 L 1275 2360 L 1150 2360 L 1150 2120 z" stroke-linecap="round" />
</g>
		<g transform="matrix(0.13 0 0 -0.13 -66.33 55.5)"  >
<path style="stroke: none; stroke-width: 1; stroke-dasharray: none; stroke-linecap: butt; stroke-dashoffset: 0; stroke-linejoin: miter; stroke-miterlimit: 4; fill: rgb(0,0,0); fill-rule: nonzero; opacity: 1;" vector-effect="non-scaling-stroke"  transform=" translate(-2016.24, -2119.73)" d="M 1915 2336 C 1855 2308 1828 2280 1801 2220 C 1762 2134 1777 2025 1838 1958 C 1886 1904 1940 1880 2013 1880 C 2141 1880 2232 1962 2247 2091 L 2253 2141 L 2124 2138 C 1999 2135 1995 2134 1992 2113 C 1989 2091 1991 2090 2084 2090 C 2190 2090 2192 2088 2166 2027 C 2112 1896 1920 1901 1859 2035 C 1827 2104 1840 2200 1888 2253 C 1953 2325 2101 2318 2148 2241 C 2156 2226 2171 2220 2195 2220 C 2214 2220 2230 2225 2230 2230 C 2230 2236 2212 2260 2189 2284 C 2119 2360 2010 2381 1915 2336 z" stroke-linecap="round" />
</g>
		<g transform="matrix(0.13 0 0 -0.13 33.51 55.47)"  >
<path style="stroke: none; stroke-width: 1; stroke-dasharray: none; stroke-linecap: butt; stroke-dashoffset: 0; stroke-linejoin: miter; stroke-miterlimit: 4; fill: rgb(0,0,0); fill-rule: nonzero; opacity: 1;" vector-effect="non-scaling-stroke"  transform=" translate(-2765, -2120)" d="M 2640 2120 L 2640 1880 L 2765 1880 L 2890 1880 L 2890 1905 C 2890 1930 2890 1930 2795 1930 L 2700 1930 L 2700 2015 L 2700 2100 L 2785 2100 C 2869 2100 2870 2100 2870 2125 C 2870 2150 2869 2150 2785 2150 L 2700 2150 L 2700 2230 L 2700 2310 L 2795 2310 C 2890 2310 2890 2310 2890 2335 L 2890 2360 L 2765 2360 L 2640 2360 L 2640 2120 z" stroke-linecap="round" />
</g>
		<g transform="matrix(0.13 0 0 -0.13 128.84 55.4)"  >
<path style="stroke: none; stroke-width: 1; stroke-dasharray: none; stroke-linecap: butt; stroke-dashoffset: 0; stroke-linejoin: miter; stroke-miterlimit: 4; fill: rgb(0,0,0); fill-rule: nonzero; opacity: 1;" vector-effect="non-scaling-stroke"  transform=" translate(-3480, -2120.5)" d="M 3297 2353 C 3293 2350 3290 2242 3290 2113 L 3290 1880 L 3320 1880 L 3350 1880 L 3352 2068 L 3355 2255 L 3480 2068 C 3599 1889 3606 1881 3638 1880 L 3670 1880 L 3668 2118 L 3665 2355 L 3638 2358 L 3610 2361 L 3610 2176 C 3610 2074 3607 1990 3603 1990 C 3598 1990 3540 2074 3472 2175 C 3372 2327 3346 2360 3327 2360 C 3314 2360 3300 2357 3297 2353 z" stroke-linecap="round" />
</g>
		<g transform="matrix(0.13 0 0 -0.13 235.33 55.27)"  >
<path style="stroke: none; stroke-width: 1; stroke-dasharray: none; stroke-linecap: butt; stroke-dashoffset: 0; stroke-linejoin: miter; stroke-miterlimit: 4; fill: rgb(0,0,0); fill-rule: nonzero; opacity: 1;" vector-effect="non-scaling-stroke"  transform=" translate(-4278.7, -2121.5)" d="M 4080 2122 L 4080 1880 L 4173 1880 C 4365 1880 4456 1942 4475 2086 C 4489 2188 4441 2283 4356 2325 C 4315 2345 4283 2351 4193 2356 L 4080 2363 L 4080 2122 z M 4324 2285 C 4371 2263 4398 2224 4409 2163 C 4436 2021 4357 1930 4208 1930 L 4140 1930 L 4140 2121 L 4140 2313 L 4214 2307 C 4255 2304 4305 2294 4324 2285 z" stroke-linecap="round" />
</g>
		<g transform="matrix(0.13 0 0 -0.13 -206.49 141.47)"  >
<path style="stroke: none; stroke-width: 1; stroke-dasharray: none; stroke-linecap: butt; stroke-dashoffset: 0; stroke-linejoin: miter; stroke-miterlimit: 4; fill: rgb(0,0,0); fill-rule: nonzero; opacity: 1;" vector-effect="non-scaling-stroke"  transform=" translate(-965, -1475)" d="M 922 1564 C 905 1552 900 1540 902 1517 C 905 1490 911 1483 950 1469 C 1003 1449 1020 1429 1001 1406 C 984 1386 941 1385 934 1405 C 928 1421 900 1426 900 1412 C 900 1394 938 1370 967 1370 C 1003 1370 1030 1397 1030 1434 C 1030 1456 1023 1464 993 1476 C 915 1506 899 1531 944 1551 C 965 1561 973 1560 988 1547 C 1008 1528 1030 1525 1030 1539 C 1030 1554 988 1580 965 1580 C 954 1580 934 1573 922 1564 z" stroke-linecap="round" />
</g>
		<g transform="matrix(0.13 0 0 -0.13 -61.9 141.27)"  >
<path style="stroke: none; stroke-width: 1; stroke-dasharray: none; stroke-linecap: butt; stroke-dashoffset: 0; stroke-linejoin: miter; stroke-miterlimit: 4; fill: rgb(0,0,0); fill-rule: nonzero; opacity: 1;" vector-effect="non-scaling-stroke"  transform=" translate(-2049.48, -1476.5)" d="M 1980 1476 C 1980 1388 1983 1370 1995 1370 C 2006 1370 2010 1382 2010 1415 C 2010 1447 2014 1460 2024 1460 C 2032 1460 2050 1440 2064 1415 C 2079 1390 2098 1370 2106 1370 C 2118 1370 2116 1378 2097 1411 L 2072 1452 L 2096 1475 C 2125 1504 2126 1520 2102 1550 C 2089 1566 2070 1574 2032 1578 L 1980 1583 L 1980 1476 z M 2065 1550 C 2086 1542 2091 1534 2088 1512 C 2085 1489 2080 1485 2048 1482 L 2010 1479 L 2010 1519 C 2010 1563 2018 1568 2065 1550 z" stroke-linecap="round" />
</g>
		<g transform="matrix(0.13 0 0 -0.13 -19.44 141.47)"  >
<path style="stroke: none; stroke-width: 1; stroke-dasharray: none; stroke-linecap: butt; stroke-dashoffset: 0; stroke-linejoin: miter; stroke-miterlimit: 4; fill: rgb(0,0,0); fill-rule: nonzero; opacity: 1;" vector-effect="non-scaling-stroke"  transform=" translate(-2367.91, -1475)" d="M 2300 1570 C 2300 1565 2311 1560 2325 1560 C 2350 1560 2350 1560 2350 1465 C 2350 1387 2353 1370 2365 1370 C 2377 1370 2380 1387 2380 1465 L 2380 1560 L 2411 1560 C 2428 1560 2439 1564 2435 1570 C 2432 1576 2400 1580 2364 1580 C 2328 1580 2300 1576 2300 1570 z" stroke-linecap="round" />
</g>
		<g transform="matrix(0.13 0 0 -0.13 55.51 141.58)"  >
<path style="stroke: none; stroke-width: 1; stroke-dasharray: none; stroke-linecap: butt; stroke-dashoffset: 0; stroke-linejoin: miter; stroke-miterlimit: 4; fill: rgb(0,0,0); fill-rule: nonzero; opacity: 1;" vector-effect="non-scaling-stroke"  transform=" translate(-2930, -1474.12)" d="M 2850 1476 C 2850 1388 2853 1370 2865 1370 C 2876 1370 2880 1382 2880 1415 L 2880 1460 L 2930 1460 L 2980 1460 L 2980 1415 C 2980 1382 2984 1370 2995 1370 C 3007 1370 3010 1388 3010 1476 C 3010 1556 3007 1581 2998 1578 C 2991 1575 2984 1555 2982 1532 L 2979 1490 L 2930 1490 L 2881 1490 L 2878 1532 C 2876 1555 2869 1575 2863 1578 C 2853 1581 2850 1556 2850 1476 z" stroke-linecap="round" />
</g>
		<g transform="matrix(0.13 0 0 -0.13 104.84 141.54)"  >
<path style="stroke: none; stroke-width: 1; stroke-dasharray: none; stroke-linecap: butt; stroke-dashoffset: 0; stroke-linejoin: miter; stroke-miterlimit: 4; fill: rgb(0,0,0); fill-rule: nonzero; opacity: 1;" vector-effect="non-scaling-stroke"  transform=" translate(-3300, -1474.44)" d="M 3248 1564 C 3212 1545 3200 1521 3200 1470 C 3200 1437 3206 1422 3229 1399 C 3291 1338 3400 1379 3400 1464 C 3400 1556 3324 1606 3248 1564 z M 3353 1531 C 3383 1501 3380 1442 3346 1414 C 3303 1377 3259 1383 3235 1431 C 3213 1473 3217 1498 3250 1532 C 3275 1556 3286 1561 3308 1555 C 3323 1552 3343 1541 3353 1531 z" stroke-linecap="round" />
</g>
		<g transform="matrix(0.13 0 0 -0.13 204.17 141.47)"  >
<path style="stroke: none; stroke-width: 1; stroke-dasharray: none; stroke-linecap: butt; stroke-dashoffset: 0; stroke-linejoin: miter; stroke-miterlimit: 4; fill: rgb(0,0,0); fill-rule: nonzero; opacity: 1;" vector-effect="non-scaling-stroke"  transform=" translate(-4045, -1474.95)" d="M 3997 1573 C 3993 1570 3990 1522 3990 1468 L 3990 1370 L 4045 1370 C 4075 1370 4100 1375 4100 1380 C 4100 1386 4082 1390 4060 1390 C 4021 1390 4020 1391 4020 1425 C 4020 1458 4022 1460 4055 1460 C 4079 1460 4090 1465 4090 1475 C 4090 1485 4079 1490 4055 1490 C 4022 1490 4020 1492 4020 1525 C 4020 1559 4021 1560 4060 1560 C 4082 1560 4100 1565 4100 1570 C 4100 1581 4007 1584 3997 1573 z" stroke-linecap="round" />
</g>
		<g transform="matrix(0.13 0 0 -0.13 -157.83 142.21)"  >
<path style="stroke: none; stroke-width: 1; stroke-dasharray: none; stroke-linecap: butt; stroke-dashoffset: 0; stroke-linejoin: miter; stroke-miterlimit: 4; fill: rgb(0,0,0); fill-rule: nonzero; opacity: 1;" vector-effect="non-scaling-stroke"  transform=" translate(-1330, -1469.4)" d="M 1230 1470 C 1230 1410 1234 1370 1240 1370 C 1246 1370 1250 1401 1250 1442 C 1250 1481 1253 1510 1257 1507 C 1260 1503 1276 1472 1291 1437 C 1306 1403 1324 1375 1330 1375 C 1336 1375 1354 1403 1369 1437 C 1384 1472 1400 1503 1403 1507 C 1407 1510 1410 1481 1410 1442 C 1410 1401 1414 1370 1420 1370 C 1426 1370 1430 1410 1430 1470 C 1430 1597 1417 1600 1367 1488 L 1331 1405 L 1294 1488 C 1243 1600 1230 1597 1230 1470 z" stroke-linecap="round" />
</g>
		<g transform="matrix(0.13 0 0 -0.13 -107.95 142.08)"  >
<path style="stroke: none; stroke-width: 1; stroke-dasharray: none; stroke-linecap: butt; stroke-dashoffset: 0; stroke-linejoin: miter; stroke-miterlimit: 4; fill: rgb(0,0,0); fill-rule: nonzero; opacity: 1;" vector-effect="non-scaling-stroke"  transform=" translate(-1704.1, -1470.41)" d="M 1682 1543 C 1663 1495 1620 1378 1620 1374 C 1620 1372 1626 1370 1634 1370 C 1642 1370 1651 1381 1654 1395 C 1660 1417 1666 1420 1705 1420 C 1744 1420 1752 1417 1760 1395 C 1765 1381 1776 1370 1783 1370 C 1794 1370 1788 1395 1761 1470 C 1723 1576 1702 1595 1682 1543 z M 1740 1453 C 1740 1445 1727 1440 1706 1440 L 1672 1440 L 1688 1491 L 1705 1543 L 1722 1504 C 1732 1482 1740 1459 1740 1453 z" stroke-linecap="round" />
</g>
		<g transform="matrix(0.13 0 0 -0.13 157.51 142.04)"  >
<path style="stroke: none; stroke-width: 1; stroke-dasharray: none; stroke-linecap: butt; stroke-dashoffset: 0; stroke-linejoin: miter; stroke-miterlimit: 4; fill: rgb(0,0,0); fill-rule: nonzero; opacity: 1;" vector-effect="non-scaling-stroke"  transform=" translate(-3695, -1470.72)" d="M 3590 1470 C 3590 1355 3608 1333 3612 1443 L 3615 1515 L 3650 1443 C 3668 1403 3688 1370 3693 1370 C 3697 1370 3716 1403 3735 1443 L 3769 1515 L 3769 1443 C 3770 1385 3773 1370 3785 1370 C 3797 1370 3800 1388 3800 1470 C 3800 1600 3784 1604 3730 1488 L 3692 1405 L 3665 1465 C 3650 1498 3634 1535 3629 1548 C 3624 1560 3614 1570 3605 1570 C 3593 1570 3590 1553 3590 1470 z" stroke-linecap="round" />
</g>
</g>
</g>
</svg>